<?xml version="1.0" encoding="UTF-8" standalone="no"?>
<svg
   xmlns:dc="http://purl.org/dc/elements/1.1/"
   xmlns:cc="http://creativecommons.org/ns#"
   xmlns:rdf="http://www.w3.org/1999/02/22-rdf-syntax-ns#"
   xmlns:svg="http://www.w3.org/2000/svg"
   xmlns="http://www.w3.org/2000/svg"
   xmlns:xlink="http://www.w3.org/1999/xlink"
   xmlns:sodipodi="http://sodipodi.sourceforge.net/DTD/sodipodi-0.dtd"
   xmlns:inkscape="http://www.inkscape.org/namespaces/inkscape"
   width="210mm"
   height="297mm"
   viewBox="0 0 210 297"
   version="1.1"
   id="svg8"
   inkscape:version="1.0 (4035a4fb49, 2020-05-01)"
   sodipodi:docname="ExplorerTools.svg">
  <defs
     id="defs2">
    <linearGradient
       id="linearGradient1019">
      <stop
         id="stop1011"
         offset="0.00000000"
         style="stop-color:#fff493;stop-opacity:1" />
      <stop
         style="stop-color:#fff8b3;stop-opacity:1"
         offset="0.59928656"
         id="stop1013" />
      <stop
         id="stop1017"
         offset="1.0000000"
         style="stop-color:#ffffff;stop-opacity:1" />
    </linearGradient>
    <linearGradient
       id="linearGradient994">
      <stop
         offset="0"
         stop-color="#9aa29a"
         id="stop990"
         style="stop-color:#3db1ff;stop-opacity:1" />
      <stop
         offset="1"
         stop-color="#b5beb5"
         id="stop992"
         style="stop-color:#75c8ff;stop-opacity:1" />
    </linearGradient>
    <linearGradient
       id="linearGradient1165">
      <stop
         style="stop-color:#fff493;stop-opacity:1"
         offset="0.00000000"
         id="stop1159" />
      <stop
         id="stop1161"
         offset="0.59928656"
         style="stop-color:#fff493;stop-opacity:1" />
      <stop
         id="stop1167"
         offset="0.79964328"
         style="stop-color:#f4e8cf;stop-opacity:1" />
      <stop
         style="stop-color:#fcf8f1;stop-opacity:1"
         offset="1.0000000"
         id="stop1163" />
    </linearGradient>
    <linearGradient
       id="linearGradient1157">
      <stop
         style="stop-color:#eed7aa;stop-opacity:1"
         offset="0.00000000"
         id="stop1149" />
      <stop
         id="stop1151"
         offset="0.59928656"
         style="stop-color:#e6c98e;stop-opacity:1" />
      <stop
         style="stop-color:#e4c688;stop-opacity:1"
         offset="1.0000000"
         id="stop1155" />
    </linearGradient>
    <inkscape:perspective
       sodipodi:type="inkscape:persp3d"
       inkscape:vp_x="0 : 24 : 1"
       inkscape:vp_y="0 : 1000 : 0"
       inkscape:vp_z="48 : 24 : 1"
       inkscape:persp3d-origin="24 : 16 : 1"
       id="perspective80" />
    <linearGradient
       inkscape:collect="always"
       id="linearGradient5060">
      <stop
         style="stop-color:black;stop-opacity:1;"
         offset="0"
         id="stop5062" />
      <stop
         style="stop-color:black;stop-opacity:0;"
         offset="1"
         id="stop5064" />
    </linearGradient>
    <linearGradient
       id="linearGradient5048">
      <stop
         style="stop-color:black;stop-opacity:0;"
         offset="0"
         id="stop5050" />
      <stop
         id="stop5056"
         offset="0.5"
         style="stop-color:black;stop-opacity:1;" />
      <stop
         style="stop-color:black;stop-opacity:0;"
         offset="1"
         id="stop5052" />
    </linearGradient>
    <linearGradient
       inkscape:collect="always"
       id="linearGradient2259">
      <stop
         style="stop-color:#ffffff;stop-opacity:1;"
         offset="0"
         id="stop2261" />
      <stop
         style="stop-color:#ffffff;stop-opacity:0;"
         offset="1"
         id="stop2263" />
    </linearGradient>
    <linearGradient
       id="linearGradient2224">
      <stop
         style="stop-color:#7c7c7c;stop-opacity:1;"
         offset="0"
         id="stop2226" />
      <stop
         style="stop-color:#b8b8b8;stop-opacity:1;"
         offset="1"
         id="stop2228" />
    </linearGradient>
    <linearGradient
       id="linearGradient15234">
      <stop
         style="stop-color:#97978a;stop-opacity:1.0000000;"
         offset="0.0000000"
         id="stop15236" />
      <stop
         id="stop15242"
         offset="0.50000000"
         style="stop-color:#c2c2b9;stop-opacity:1.0000000;" />
      <stop
         style="stop-color:#7d7d6f;stop-opacity:1.0000000;"
         offset="1.0000000"
         id="stop15238" />
    </linearGradient>
    <linearGradient
       id="linearGradient15218">
      <stop
         style="stop-color:#f0f0ef;stop-opacity:1.0000000;"
         offset="0.0000000"
         id="stop15220" />
      <stop
         id="stop2269"
         offset="0.59928656"
         style="stop-color:#e8e8e8;stop-opacity:1;" />
      <stop
         id="stop2267"
         offset="0.82758623"
         style="stop-color:#ffffff;stop-opacity:1;" />
      <stop
         style="stop-color:#d8d8d3;stop-opacity:1.0000000;"
         offset="1.0000000"
         id="stop15222" />
    </linearGradient>
    <linearGradient
       id="linearGradient14484">
      <stop
         style="stop-color:#fff8b3;stop-opacity:1"
         offset="0.0000000"
         id="stop14486" />
      <stop
         style="stop-color:#c7e9ff;stop-opacity:1"
         offset="1.0000000"
         id="stop14488" />
    </linearGradient>
    <linearGradient
       inkscape:collect="always"
       id="linearGradient13746">
      <stop
         style="stop-color:#646459;stop-opacity:1;"
         offset="0"
         id="stop13748" />
      <stop
         style="stop-color:#646459;stop-opacity:0;"
         offset="1"
         id="stop13750" />
    </linearGradient>
    <radialGradient
       inkscape:collect="always"
       xlink:href="#linearGradient13746"
       id="radialGradient13752"
       cx="24.647722"
       cy="45.272587"
       fx="24.647722"
       fy="45.272587"
       r="21.011173"
       gradientTransform="matrix(1.000000,0.000000,0.000000,0.110577,4.987330e-17,40.26648)"
       gradientUnits="userSpaceOnUse" />
    <linearGradient
       inkscape:collect="always"
       xlink:href="#linearGradient15234"
       id="linearGradient15240"
       x1="25.404572"
       y1="3.8180194"
       x2="25.464211"
       y2="9.3233509"
       gradientUnits="userSpaceOnUse"
       gradientTransform="matrix(0.65887535,0,0,0.62593133,129.68053,11.50364)" />
    <linearGradient
       inkscape:collect="always"
       xlink:href="#linearGradient2259"
       id="linearGradient2245"
       x1="25.682829"
       y1="12.172059"
       x2="25.692169"
       y2="-0.20294096"
       gradientUnits="userSpaceOnUse"
       gradientTransform="matrix(0.62593133,0,0,0.62593133,130.80061,11.50364)" />
    <linearGradient
       inkscape:collect="always"
       xlink:href="#linearGradient15234"
       id="linearGradient2283"
       gradientUnits="userSpaceOnUse"
       gradientTransform="matrix(0.33721612,0,0,0.32035541,137.56117,11.138947)"
       x1="25.404572"
       y1="3.8180194"
       x2="25.404572"
       y2="6.481061" />
    <linearGradient
       inkscape:collect="always"
       xlink:href="#linearGradient15234"
       id="linearGradient2287"
       gradientUnits="userSpaceOnUse"
       gradientTransform="matrix(0.62919994,0,0,0.55327823,130.40758,12.03177)"
       x1="25.404572"
       y1="3.8180194"
       x2="25.464211"
       y2="9.3233509" />
    <linearGradient
       id="linearGradient15218-9">
      <stop
         style="stop-color:#f0eff1;stop-opacity:1.0000000;"
         offset="0.00000000"
         id="stop15220-6" />
      <stop
         id="stop2269-5"
         offset="0.59928656"
         style="stop-color:#e8e6ea;stop-opacity:1.0000000;" />
      <stop
         id="stop2267-5"
         offset="0.82758623"
         style="stop-color:#ffffff;stop-opacity:1;" />
      <stop
         style="stop-color:#d6d3da;stop-opacity:1.0000000;"
         offset="1.0000000"
         id="stop15222-5" />
    </linearGradient>
    <linearGradient
       id="linearGradient2224-0">
      <stop
         style="stop-color:#7a7187;stop-opacity:1.0000000;"
         offset="0.00000000"
         id="stop2226-8" />
      <stop
         style="stop-color:#b7b2be;stop-opacity:1.0000000;"
         offset="1.0000000"
         id="stop2228-0" />
    </linearGradient>
    <linearGradient
       inkscape:collect="always"
       xlink:href="#linearGradient2224-0"
       id="linearGradient2230"
       x1="35.996582"
       y1="40.458221"
       x2="33.664921"
       y2="37.770721"
       gradientUnits="userSpaceOnUse"
       gradientTransform="matrix(0.58932571,0,0,0.58932571,16.051649,41.953148)" />
    <linearGradient
       inkscape:collect="always"
       xlink:href="#linearGradient2259"
       id="linearGradient2257"
       x1="33.396004"
       y1="36.921333"
       x2="34.170048"
       y2="38.070381"
       gradientUnits="userSpaceOnUse"
       gradientTransform="matrix(0.58932571,0,0,0.58932571,16.051649,41.732151)" />
    <linearGradient
       inkscape:collect="always"
       xlink:href="#linearGradient1019"
       id="linearGradient4258"
       gradientUnits="userSpaceOnUse"
       gradientTransform="matrix(0.62899032,0,0,0.58237364,6.9057964,10.205236)"
       x1="22.308331"
       y1="18.99214"
       x2="35.785294"
       y2="39.498238" />
    <linearGradient
       inkscape:collect="always"
       xlink:href="#linearGradient2259"
       id="linearGradient4260"
       gradientUnits="userSpaceOnUse"
       gradientTransform="matrix(0.58933145,0,0,0.58865442,7.8371128,10.204535)"
       x1="26.076092"
       y1="26.696676"
       x2="30.811172"
       y2="42.007351" />
    <linearGradient
       inkscape:collect="always"
       xlink:href="#linearGradient2259"
       id="linearGradient13651"
       gradientUnits="userSpaceOnUse"
       gradientTransform="matrix(0.58898449,0,0,0.58932571,15.951159,41.953148)"
       x1="26.076092"
       y1="26.696676"
       x2="30.811172"
       y2="42.007351" />
    <linearGradient
       inkscape:collect="always"
       xlink:href="#linearGradient1019"
       id="linearGradient13653"
       gradientUnits="userSpaceOnUse"
       gradientTransform="matrix(0.62894961,0,0,0.58300578,15.008453,41.954218)"
       x1="22.308331"
       y1="18.99214"
       x2="35.785294"
       y2="39.498238" />
    <linearGradient
       id="a">
      <stop
         offset="0"
         stop-color="#9aa29a"
         id="stop1169"
         style="stop-color:#3db1ff;stop-opacity:1" />
      <stop
         offset="1"
         stop-color="#b5beb5"
         id="stop1171"
         style="stop-color:#75c8ff;stop-opacity:1" />
    </linearGradient>
    <radialGradient
       id="b"
       cx="6.703"
       cy="73.616"
       r="7.228"
       gradientTransform="matrix(2.5660984,0,0,0.67567327,48.252302,-12.86717)"
       gradientUnits="userSpaceOnUse">
      <stop
         offset="0"
         id="stop1174" />
      <stop
         offset="1"
         stop-opacity="0"
         id="stop1176" />
    </radialGradient>
    <linearGradient
       id="i"
       x1="8.78"
       x2="9.762"
       y1="37.785"
       y2="32.203"
       gradientTransform="matrix(1.7942679,0,0,0.50834673,49.597872,12.09653)"
       gradientUnits="userSpaceOnUse">
      <stop
         offset="0"
         stop-opacity=".129"
         id="stop1179" />
      <stop
         offset="1"
         stop-opacity="0"
         id="stop1181" />
    </linearGradient>
    <linearGradient
       id="h"
       x1="11.233"
       x2="21.112"
       y1="13.686"
       y2="24.133"
       gradientTransform="matrix(1.0270833,0,0,0.93968582,49.261479,11.782173)"
       gradientUnits="userSpaceOnUse">
      <stop
         offset="0"
         stop-color="#fff"
         id="stop1184" />
      <stop
         offset="1"
         stop-color="#ededed"
         id="stop1186" />
    </linearGradient>
    <linearGradient
       id="g"
       x1="8.916"
       x2="9.886"
       y1="37.197"
       y2="52.091"
       gradientTransform="matrix(1.8391452,0,0,0.49594168,49.597872,12.09653)"
       gradientUnits="userSpaceOnUse"
       xlink:href="#a" />
    <linearGradient
       id="f"
       x1="10.184"
       x2="15.311"
       y1="15.148"
       y2="29.569"
       gradientTransform="matrix(1.3630262,0,0,0.66919585,49.597872,12.09653)"
       gradientUnits="userSpaceOnUse"
       xlink:href="#linearGradient1157">
      <stop
         offset="0"
         stop-color="#fff"
         id="stop1190" />
      <stop
         offset="1"
         stop-color="#dcdcdc"
         id="stop1192"
         style="stop-color:#fff493;stop-opacity:1" />
    </linearGradient>
    <linearGradient
       id="e"
       x1="5.827"
       x2="13.467"
       y1="7.231"
       y2="17.877"
       gradientTransform="matrix(1.1766993,0,0,0.77515294,49.597872,12.09653)"
       gradientUnits="userSpaceOnUse">
      <stop
         offset="0"
         stop-color="#ededed"
         id="stop1195" />
      <stop
         offset="1"
         stop-color="#c8c8c8"
         id="stop1197" />
    </linearGradient>
    <linearGradient
       id="c"
       x1="11.573"
       x2="18.475"
       y1="4.746"
       y2="26.023"
       gradientTransform="matrix(1.0065551,0,0,0.92282901,49.597872,12.078306)"
       gradientUnits="userSpaceOnUse">
      <stop
         offset="0"
         stop-color="#fff"
         id="stop1200"
         style="stop-color:#ccebff;stop-opacity:1" />
      <stop
         offset="1"
         stop-color="#e2e2e2"
         id="stop1202"
         style="stop-color:#c7e9ff;stop-opacity:1" />
    </linearGradient>
    <linearGradient
       id="d"
       x1="2.062"
       x2="30.6"
       y1="15.257"
       y2="15.257"
       gradientTransform="matrix(1.0065551,0,0,0.92282901,49.597872,12.078306)"
       gradientUnits="userSpaceOnUse">
      <stop
         offset="0"
         stop-color="#989690"
         id="stop1205"
         style="stop-color:#2ba9fd;stop-opacity:1" />
      <stop
         offset="1"
         stop-color="#656460"
         id="stop1207"
         style="stop-color:#0077c7;stop-opacity:1" />
    </linearGradient>
    <linearGradient
       inkscape:collect="always"
       xlink:href="#linearGradient994"
       id="linearGradient1284"
       gradientUnits="userSpaceOnUse"
       gradientTransform="matrix(1.8391452,0,0,0.49594168,49.597872,12.09653)"
       x1="8.916"
       y1="37.197"
       x2="9.886"
       y2="52.091" />
    <linearGradient
       id="linearGradient3264">
      <stop
         id="stop3266"
         offset="0"
         style="stop-color:#c9c9c9;stop-opacity:1;" />
      <stop
         style="stop-color:#f8f8f8;stop-opacity:1;"
         offset="0.25"
         id="stop3276" />
      <stop
         style="stop-color:#e2e2e2;stop-opacity:1;"
         offset="0.5"
         id="stop3272" />
      <stop
         id="stop3274"
         offset="0.75"
         style="stop-color:#b0b0b0;stop-opacity:1;" />
      <stop
         id="stop3268"
         offset="1"
         style="stop-color:#c9c9c9;stop-opacity:1;" />
    </linearGradient>
    <radialGradient
       gradientUnits="userSpaceOnUse"
       gradientTransform="matrix(0.62758533,0,0,0.19788707,90.128283,29.591278)"
       r="19.622213"
       fy="39.161163"
       fx="25.455845"
       cy="39.161163"
       cx="25.455845"
       id="radialGradient3262"
       xlink:href="#linearGradient5060" />
    <linearGradient
       gradientTransform="matrix(0.77942019,0,0,0.77942019,87.527806,7.5428463)"
       y2="39.684914"
       x2="34.534348"
       y1="12.284524"
       x1="14.462892"
       gradientUnits="userSpaceOnUse"
       id="linearGradient3281"
       xlink:href="#linearGradient3264" />
    <linearGradient
       inkscape:collect="always"
       xlink:href="#linearGradient1019"
       id="linearGradient1111"
       gradientUnits="userSpaceOnUse"
       gradientTransform="matrix(0.62894961,0,0,0.58300578,15.008453,41.954218)"
       x1="22.308331"
       y1="18.99214"
       x2="35.785294"
       y2="39.498238" />
    <linearGradient
       inkscape:collect="always"
       xlink:href="#linearGradient2259"
       id="linearGradient1113"
       gradientUnits="userSpaceOnUse"
       gradientTransform="matrix(0.58898449,0,0,0.58932571,15.951159,41.953148)"
       x1="26.076092"
       y1="26.696676"
       x2="30.811172"
       y2="42.007351" />
    <linearGradient
       inkscape:collect="always"
       xlink:href="#linearGradient2224-0"
       id="linearGradient1115"
       gradientUnits="userSpaceOnUse"
       gradientTransform="matrix(0.58932571,0,0,0.58932571,16.051649,41.953148)"
       x1="35.996582"
       y1="40.458221"
       x2="33.664921"
       y2="37.770721" />
    <linearGradient
       inkscape:collect="always"
       xlink:href="#linearGradient2259"
       id="linearGradient1117"
       gradientUnits="userSpaceOnUse"
       gradientTransform="matrix(0.58932571,0,0,0.58932571,16.051649,41.732151)"
       x1="33.396004"
       y1="36.921333"
       x2="34.170048"
       y2="38.070381" />
  </defs>
  <sodipodi:namedview
     id="base"
     pagecolor="#ffffff"
     bordercolor="#666666"
     borderopacity="1.0"
     inkscape:pageopacity="0.0"
     inkscape:pageshadow="2"
     inkscape:zoom="0.69534628"
     inkscape:cx="430.91675"
     inkscape:cy="422.95122"
     inkscape:document-units="mm"
     inkscape:current-layer="layer2"
     inkscape:document-rotation="0"
     showgrid="false"
     inkscape:window-width="1528"
     inkscape:window-height="962"
     inkscape:window-x="27"
     inkscape:window-y="18"
     inkscape:window-maximized="0"
     inkscape:snap-global="false" />
  <metadata
     id="metadata5">
    <rdf:RDF>
      <cc:Work
         rdf:about="">
        <dc:format>image/svg+xml</dc:format>
        <dc:type
           rdf:resource="http://purl.org/dc/dcmitype/StillImage" />
        <dc:title />
      </cc:Work>
    </rdf:RDF>
  </metadata>
  <g
     inkscape:groupmode="layer"
     id="layer2"
     inkscape:label="Camera"
     style="display:inline">
    <rect
       style="fill:#eeeeee;fill-opacity:1;stroke:none;stroke-width:0.401024"
       id="rect11"
       width="32"
       height="32"
       x="10"
       y="10"
       inkscape:export-xdpi="25.4"
       inkscape:export-ydpi="25.4" />
    <rect
       style="fill:#eeeeee;fill-opacity:1;stroke:none;stroke-width:0.401024"
       id="rect836"
       width="32"
       height="32"
       x="50"
       y="10"
       inkscape:export-xdpi="25.4"
       inkscape:export-ydpi="25.4" />
    <rect
       style="fill:#eeeeee;fill-opacity:1;stroke:none;stroke-width:0.401024"
       id="rect838"
       width="32"
       height="32"
       x="90"
       y="10"
       inkscape:export-xdpi="25.4"
       inkscape:export-ydpi="25.4" />
    <rect
       inkscape:export-ydpi="25.4"
       inkscape:export-xdpi="25.4"
       style="fill:#eeeeee;fill-opacity:1;stroke:none;stroke-width:0.401024"
       id="rect840"
       width="32"
       height="32"
       x="130"
       y="10" />
    <rect
       style="fill:#eeeeee;fill-opacity:1;stroke:none;stroke-width:0.401024"
       id="rect846"
       width="32"
       height="32"
       x="10"
       y="50" />
    <rect
       style="fill:#eeeeee;fill-opacity:1;stroke:none;stroke-width:0.401024"
       id="rect848"
       width="32"
       height="32"
       x="50"
       y="50" />
    <rect
       style="fill:#eeeeee;fill-opacity:1;stroke:none;stroke-width:0.401024"
       id="rect850"
       width="32"
       height="32"
       x="90"
       y="50" />
    <rect
       style="fill:#eeeeee;fill-opacity:1;stroke:none;stroke-width:0.401024"
       id="rect852"
       width="32"
       height="32"
       x="130"
       y="50" />
  </g>
  <g
     inkscape:label="Ebene 1"
     inkscape:groupmode="layer"
     id="layer1"
     style="display:inline">
    <g
       transform="translate(0,-0.76101172)"
       id="g1062">
      <rect
         style="fill:url(#linearGradient4258);fill-opacity:1;fill-rule:evenodd;stroke:#1691e3;stroke-width:1;stroke-linecap:butt;stroke-linejoin:miter;stroke-miterlimit:4;stroke-dasharray:none;stroke-dashoffset:0;stroke-opacity:1"
         id="rect4238"
         width="18.268057"
         height="21.215048"
         x="12.86505"
         y="14.011466"
         rx="0.3338578"
         ry="0.33385795" />
      <rect
         style="fill:none;fill-opacity:1;fill-rule:evenodd;stroke:url(#linearGradient4260);stroke-width:0.589326;stroke-linecap:butt;stroke-linejoin:miter;stroke-miterlimit:4;stroke-dasharray:none;stroke-dashoffset:0;stroke-opacity:1"
         id="rect4240"
         width="17.098949"
         height="20.038246"
         x="13.445864"
         y="14.599778"
         rx="0.0000000"
         ry="0.0000000" />
      <rect
         style="color:#000000;display:inline;overflow:visible;visibility:visible;fill:#61c0ff;fill-opacity:1;fill-rule:evenodd;stroke:none;stroke-width:0.589952;stroke-linecap:butt;stroke-linejoin:miter;stroke-miterlimit:4;stroke-dasharray:none;stroke-dashoffset:0;stroke-opacity:1;marker:none;marker-start:none;marker-mid:none;marker-end:none"
         id="rect4248"
         width="12.394503"
         height="1.1793774"
         x="16.092152"
         y="19.006414" />
      <rect
         y="21.36517"
         x="16.092152"
         height="1.1793774"
         width="11.804288"
         id="rect4250"
         style="color:#000000;display:inline;overflow:visible;visibility:visible;fill:#61c0ff;fill-opacity:1;fill-rule:evenodd;stroke:none;stroke-width:0.589952;stroke-linecap:butt;stroke-linejoin:miter;stroke-miterlimit:4;stroke-dasharray:none;stroke-dashoffset:0;stroke-opacity:1;marker:none;marker-start:none;marker-mid:none;marker-end:none" />
      <rect
         style="color:#000000;display:inline;overflow:visible;visibility:visible;fill:#61c0ff;fill-opacity:1;fill-rule:evenodd;stroke:none;stroke-width:0.589952;stroke-linecap:butt;stroke-linejoin:miter;stroke-miterlimit:4;stroke-dasharray:none;stroke-dashoffset:0;stroke-opacity:1;marker:none;marker-start:none;marker-mid:none;marker-end:none"
         id="rect4252"
         width="10.623859"
         height="1.1793774"
         x="16.092152"
         y="23.723925" />
      <rect
         y="26.08268"
         x="16.092152"
         height="1.1793774"
         width="12.394503"
         id="rect4254"
         style="color:#000000;display:inline;overflow:visible;visibility:visible;fill:#61c0ff;fill-opacity:1;fill-rule:evenodd;stroke:none;stroke-width:0.589952;stroke-linecap:butt;stroke-linejoin:miter;stroke-miterlimit:4;stroke-dasharray:none;stroke-dashoffset:0;stroke-opacity:1;marker:none;marker-start:none;marker-mid:none;marker-end:none" />
      <rect
         style="color:#000000;display:inline;overflow:visible;visibility:visible;fill:#61c0ff;fill-opacity:1;fill-rule:evenodd;stroke:none;stroke-width:0.589952;stroke-linecap:butt;stroke-linejoin:miter;stroke-miterlimit:4;stroke-dasharray:none;stroke-dashoffset:0;stroke-opacity:1;marker:none;marker-start:none;marker-mid:none;marker-end:none"
         id="rect4256"
         width="7.6727872"
         height="1.1793774"
         x="16.092152"
         y="28.441435" />
    </g>
    <g
       id="g1072"
       transform="translate(0,-27.219346)">
      <path
         sodipodi:nodetypes="ccccccccc"
         id="rect12413"
         d="m 21.303196,45.764577 h 17.595135 c 0.186074,0 0.335872,0.149154 0.335872,0.334426 v 16.010425 c 0,1.459437 -4.054449,4.893222 -5.461831,4.893222 H 21.303196 c -0.186074,0 -0.335872,-0.149153 -0.335872,-0.334426 V 46.099003 c 0,-0.185272 0.149798,-0.334426 0.335872,-0.334426 z"
         style="fill:url(#linearGradient13653);fill-opacity:1;fill-rule:evenodd;stroke:#1691e3;stroke-width:1;stroke-linecap:butt;stroke-linejoin:miter;stroke-miterlimit:4;stroke-dasharray:none;stroke-dashoffset:0;stroke-opacity:1" />
      <rect
         style="fill:none;fill-opacity:1;fill-rule:evenodd;stroke:url(#linearGradient13651);stroke-width:0.589326;stroke-linecap:butt;stroke-linejoin:miter;stroke-miterlimit:4;stroke-dasharray:none;stroke-dashoffset:0;stroke-opacity:1"
         id="rect15244"
         width="17.088882"
         height="20.061098"
         x="21.556608"
         y="46.353401"
         rx="0.00000000"
         ry="0.00000000" />
      <path
         style="color:#000000;display:inline;overflow:visible;visibility:visible;fill:url(#linearGradient2230);fill-opacity:1;fill-rule:evenodd;stroke:#1691e3;stroke-width:0.8;stroke-linecap:butt;stroke-linejoin:miter;stroke-miterlimit:4;stroke-dasharray:none;stroke-dashoffset:0;stroke-opacity:1;marker:none;marker-start:none;marker-mid:none;marker-end:none"
         d="m 33.766239,67.001586 c 1.196578,0.194417 5.650922,-2.669604 5.471542,-5.007998 -0.92127,1.427993 -2.804319,0.758307 -5.225716,0.852016 0,0 0.233001,3.861319 -0.245826,4.155982 z"
         id="path2210"
         sodipodi:nodetypes="cccc" />
      <path
         sodipodi:nodetypes="cccc"
         id="path2247"
         d="m 34.621019,65.710077 c 0.807246,-0.402998 2.609681,-1.264967 3.37544,-2.373491 -0.94062,0.400774 -1.737221,0.123461 -3.360532,0.112211 0,0 0.09566,1.80457 -0.01491,2.26128 z"
         style="color:#000000;display:inline;overflow:visible;visibility:visible;opacity:0.369318;fill:none;fill-opacity:1;fill-rule:evenodd;stroke:url(#linearGradient2257);stroke-width:0.589326;stroke-linecap:butt;stroke-linejoin:miter;stroke-miterlimit:4;stroke-dasharray:none;stroke-dashoffset:0;stroke-opacity:1;marker:none;marker-start:none;marker-mid:none;marker-end:none" />
      <rect
         style="color:#000000;display:inline;overflow:visible;visibility:visible;fill:#61c0ff;fill-opacity:1;fill-rule:evenodd;stroke:none;stroke-width:0.589326;stroke-linecap:butt;stroke-linejoin:miter;stroke-miterlimit:4;stroke-dasharray:none;stroke-dashoffset:0;stroke-opacity:1;marker:none;marker-start:none;marker-mid:none;marker-end:none"
         id="rect2271"
         width="12.37584"
         height="1.1786515"
         x="24.206835"
         y="50.793037" />
      <rect
         y="53.150337"
         x="24.206835"
         height="1.1786515"
         width="11.781937"
         id="rect2273"
         style="color:#000000;display:inline;overflow:visible;visibility:visible;fill:#61c0ff;fill-opacity:1;fill-rule:evenodd;stroke:none;stroke-width:0.589326;stroke-linecap:butt;stroke-linejoin:miter;stroke-miterlimit:4;stroke-dasharray:none;stroke-dashoffset:0;stroke-opacity:1;marker:none;marker-start:none;marker-mid:none;marker-end:none" />
      <rect
         style="color:#000000;display:inline;overflow:visible;visibility:visible;fill:#61c0ff;fill-opacity:1;fill-rule:evenodd;stroke:none;stroke-width:0.589326;stroke-linecap:butt;stroke-linejoin:miter;stroke-miterlimit:4;stroke-dasharray:none;stroke-dashoffset:0;stroke-opacity:1;marker:none;marker-start:none;marker-mid:none;marker-end:none"
         id="rect2275"
         width="10.594132"
         height="1.1786515"
         x="24.206835"
         y="55.507641" />
      <rect
         y="57.864944"
         x="24.206835"
         height="1.1786515"
         width="12.37584"
         id="rect2277"
         style="color:#000000;display:inline;overflow:visible;visibility:visible;fill:#61c0ff;fill-opacity:1;fill-rule:evenodd;stroke:none;stroke-width:0.589326;stroke-linecap:butt;stroke-linejoin:miter;stroke-miterlimit:4;stroke-dasharray:none;stroke-dashoffset:0;stroke-opacity:1;marker:none;marker-start:none;marker-mid:none;marker-end:none" />
    </g>
    <rect
       ry="0.86875284"
       rx="0.86875331"
       y="14.320331"
       x="133.59497"
       height="25.691626"
       width="24.433657"
       id="rect12368"
       style="fill:#c7e9ff;fill-opacity:1;fill-rule:evenodd;stroke:#1691e3;stroke-width:1;stroke-linecap:butt;stroke-linejoin:miter;stroke-miterlimit:4;stroke-dasharray:none;stroke-dashoffset:0;stroke-opacity:1" />
    <rect
       ry="0.61583841"
       rx="0.61583841"
       y="11.50364"
       x="142.06738"
       height="2.5037253"
       width="7.5111761"
       id="rect13756"
       style="fill:#5c5c5c;fill-opacity:1;fill-rule:evenodd;stroke:none;stroke-width:0.625931;stroke-linecap:butt;stroke-linejoin:miter;stroke-miterlimit:4;stroke-dasharray:none;stroke-dashoffset:0;stroke-opacity:1" />
    <rect
       ry="0.29969496"
       rx="0.29969496"
       y="14.902934"
       x="134.20528"
       height="24.469526"
       width="23.213074"
       id="rect15974"
       style="fill:none;fill-opacity:1;fill-rule:evenodd;stroke:#2aa8fc;stroke-width:0.625931;stroke-linecap:butt;stroke-linejoin:miter;stroke-miterlimit:4;stroke-dasharray:none;stroke-dashoffset:0;stroke-opacity:1" />
    <rect
       style="opacity:0.107955;fill:#000000;fill-opacity:1;fill-rule:evenodd;stroke:#000000;stroke-width:0.625931;stroke-linecap:butt;stroke-linejoin:miter;stroke-miterlimit:4;stroke-dasharray:none;stroke-dashoffset:0;stroke-opacity:1"
       id="rect2208"
       width="11.859756"
       height="4.3815193"
       x="140.05907"
       y="14.302976"
       rx="0.86875367"
       ry="0.86875284" />
    <g
       transform="translate(115.88751,-29.104169)"
       id="g1109">
      <path
         style="fill:url(#linearGradient1111);fill-opacity:1;fill-rule:evenodd;stroke:#1691e3;stroke-width:1;stroke-linecap:butt;stroke-linejoin:miter;stroke-miterlimit:4;stroke-dasharray:none;stroke-dashoffset:0;stroke-opacity:1"
         d="m 21.303196,45.764577 h 17.595135 c 0.186074,0 0.335872,0.149154 0.335872,0.334426 v 16.010425 c 0,1.459437 -4.054449,4.893222 -5.461831,4.893222 H 21.303196 c -0.186074,0 -0.335872,-0.149153 -0.335872,-0.334426 V 46.099003 c 0,-0.185272 0.149798,-0.334426 0.335872,-0.334426 z"
         id="path1093"
         sodipodi:nodetypes="ccccccccc" />
      <rect
         ry="0.00000000"
         rx="0.00000000"
         y="46.353401"
         x="21.556608"
         height="20.061098"
         width="17.088882"
         id="rect1095"
         style="fill:none;fill-opacity:1;fill-rule:evenodd;stroke:url(#linearGradient1113);stroke-width:0.589326;stroke-linecap:butt;stroke-linejoin:miter;stroke-miterlimit:4;stroke-dasharray:none;stroke-dashoffset:0;stroke-opacity:1" />
      <path
         sodipodi:nodetypes="cccc"
         id="path1097"
         d="m 33.766239,67.001586 c 1.196578,0.194417 5.650922,-2.669604 5.471542,-5.007998 -0.92127,1.427993 -2.804319,0.758307 -5.225716,0.852016 0,0 0.233001,3.861319 -0.245826,4.155982 z"
         style="color:#000000;display:inline;overflow:visible;visibility:visible;fill:url(#linearGradient1115);fill-opacity:1;fill-rule:evenodd;stroke:#1691e3;stroke-width:0.8;stroke-linecap:butt;stroke-linejoin:miter;stroke-miterlimit:4;stroke-dasharray:none;stroke-dashoffset:0;stroke-opacity:1;marker:none;marker-start:none;marker-mid:none;marker-end:none" />
      <path
         style="color:#000000;display:inline;overflow:visible;visibility:visible;opacity:0.369318;fill:none;fill-opacity:1;fill-rule:evenodd;stroke:url(#linearGradient1117);stroke-width:0.589326;stroke-linecap:butt;stroke-linejoin:miter;stroke-miterlimit:4;stroke-dasharray:none;stroke-dashoffset:0;stroke-opacity:1;marker:none;marker-start:none;marker-mid:none;marker-end:none"
         d="m 34.621019,65.710077 c 0.807246,-0.402998 2.609681,-1.264967 3.37544,-2.373491 -0.94062,0.400774 -1.737221,0.123461 -3.360532,0.112211 0,0 0.09566,1.80457 -0.01491,2.26128 z"
         id="path1099"
         sodipodi:nodetypes="cccc" />
      <rect
         y="50.793037"
         x="24.206835"
         height="1.1786515"
         width="12.37584"
         id="rect1101"
         style="color:#000000;display:inline;overflow:visible;visibility:visible;fill:#61c0ff;fill-opacity:1;fill-rule:evenodd;stroke:none;stroke-width:0.589326;stroke-linecap:butt;stroke-linejoin:miter;stroke-miterlimit:4;stroke-dasharray:none;stroke-dashoffset:0;stroke-opacity:1;marker:none;marker-start:none;marker-mid:none;marker-end:none" />
      <rect
         style="color:#000000;display:inline;overflow:visible;visibility:visible;fill:#61c0ff;fill-opacity:1;fill-rule:evenodd;stroke:none;stroke-width:0.589326;stroke-linecap:butt;stroke-linejoin:miter;stroke-miterlimit:4;stroke-dasharray:none;stroke-dashoffset:0;stroke-opacity:1;marker:none;marker-start:none;marker-mid:none;marker-end:none"
         id="rect1103"
         width="11.781937"
         height="1.1786515"
         x="24.206835"
         y="53.150337" />
      <rect
         y="55.507641"
         x="24.206835"
         height="1.1786515"
         width="10.594132"
         id="rect1105"
         style="color:#000000;display:inline;overflow:visible;visibility:visible;fill:#61c0ff;fill-opacity:1;fill-rule:evenodd;stroke:none;stroke-width:0.589326;stroke-linecap:butt;stroke-linejoin:miter;stroke-miterlimit:4;stroke-dasharray:none;stroke-dashoffset:0;stroke-opacity:1;marker:none;marker-start:none;marker-mid:none;marker-end:none" />
      <rect
         style="color:#000000;display:inline;overflow:visible;visibility:visible;fill:#61c0ff;fill-opacity:1;fill-rule:evenodd;stroke:none;stroke-width:0.589326;stroke-linecap:butt;stroke-linejoin:miter;stroke-miterlimit:4;stroke-dasharray:none;stroke-dashoffset:0;stroke-opacity:1;marker:none;marker-start:none;marker-mid:none;marker-end:none"
         id="rect1107"
         width="12.37584"
         height="1.1786515"
         x="24.206835"
         y="57.864944" />
    </g>
    <rect
       style="fill:url(#linearGradient15240);fill-opacity:1;fill-rule:evenodd;stroke:#5c5c5c;stroke-width:0.625931;stroke-linecap:butt;stroke-linejoin:miter;stroke-miterlimit:4;stroke-dasharray:none;stroke-dashoffset:0;stroke-opacity:1"
       id="rect2285"
       width="11.859756"
       height="4.3815193"
       x="139.8931"
       y="13.6944"
       rx="0.86875367"
       ry="0.86875284" />
    <rect
       style="fill:url(#linearGradient2283);fill-opacity:1;fill-rule:evenodd;stroke:none;stroke-width:0.625931;stroke-linecap:butt;stroke-linejoin:miter;stroke-miterlimit:4;stroke-dasharray:none;stroke-dashoffset:0;stroke-opacity:1"
       id="rect2281"
       width="6.0698915"
       height="2.242487"
       x="142.78802"
       y="12.26019"
       rx="0.20370081"
       ry="0.20370081" />
    <rect
       ry="0.63402861"
       rx="0.63402861"
       y="13.968245"
       x="140.16017"
       height="3.8729501"
       width="11.325597"
       id="rect13754"
       style="fill:url(#linearGradient2287);fill-opacity:1;fill-rule:evenodd;stroke:none;stroke-width:0.625931;stroke-linecap:butt;stroke-linejoin:miter;stroke-miterlimit:4;stroke-dasharray:none;stroke-dashoffset:0;stroke-opacity:1" />
    <path
       id="rect2232"
       d="m 142.98671,12.422977 c -10e-4,0.0013 0.001,0.01802 0,0.01956 -7.5e-4,0.0017 -0.0192,-0.0019 -0.0196,0 v 1.799553 c 0,0.004 0.0181,0.01609 0.0196,0.01956 0.002,0.001 -0.002,0.01883 0,0.01956 h -2.21032 c -0.0111,0 -0.0283,-0.0011 -0.0391,0 -0.0213,0.0032 -0.0586,0.01238 -0.0782,0.01956 -0.0865,0.03646 -0.16754,0.124572 -0.1956,0.215164 -0.007,0.02568 0,0.07001 0,0.0978 v 2.601527 c 0,0.01112 -0.001,0.0283 0,0.03912 0.003,0.0213 0.0124,0.05855 0.0196,0.07824 0.006,0.01441 0.0115,0.04544 0.0196,0.05868 0.003,0.0043 0.0165,0.01544 0.0196,0.01956 0.0131,0.01584 0.0428,0.04561 0.0587,0.05868 0.008,0.0062 0.0303,0.01421 0.0391,0.01956 0.009,0.0049 0.0295,0.01551 0.0391,0.01956 0.0197,0.0072 0.0569,0.01632 0.0782,0.01956 0.0108,0.0011 0.028,0 0.0391,0 h 10.09314 c 0.0111,0 0.0283,0.0011 0.0391,0 0.0213,-0.0032 0.0586,-0.01238 0.0782,-0.01956 0.01,-0.004 0.03,-0.01463 0.0391,-0.01956 0.009,-0.0054 0.0309,-0.01341 0.0391,-0.01956 0.0158,-0.01307 0.0456,-0.04284 0.0587,-0.05868 0.003,-0.0041 0.0167,-0.01529 0.0196,-0.01956 0.008,-0.01324 0.0135,-0.04427 0.0196,-0.05868 0.007,-0.01969 0.0163,-0.05694 0.0196,-0.07824 0.001,-0.01082 0,-0.028 0,-0.03912 v -2.601527 c 0,-0.02779 0.007,-0.07212 0,-0.0978 -0.0281,-0.09059 -0.10912,-0.178706 -0.1956,-0.215164 -0.0197,-0.0072 -0.0569,-0.01632 -0.0782,-0.01956 -0.0108,-0.0011 -0.028,0 -0.0391,0 h -2.21032 c 0.002,-7.32e-4 -0.002,-0.01852 0,-0.01956 0.001,-0.0035 0.0196,-0.01554 0.0196,-0.01956 v -1.799553 c -3.9e-4,-0.0019 -0.0188,0.0017 -0.0196,0 -0.001,-0.0015 0.001,-0.01825 0,-0.01956 -0.002,-7.33e-4 -0.0177,3.85e-4 -0.0196,0 h -5.63338 c -0.002,3.85e-4 -0.0178,-7.33e-4 -0.0196,0 z"
       style="opacity:0.316818;fill:none;fill-opacity:1;fill-rule:evenodd;stroke:url(#linearGradient2245);stroke-width:0.625931;stroke-linecap:butt;stroke-linejoin:miter;stroke-miterlimit:4;stroke-dasharray:none;stroke-dashoffset:0;stroke-opacity:1" />
    <path
       fill="url(#c)"
       fill-rule="evenodd"
       stroke="url(#d)"
       stroke-linejoin="round"
       stroke-width="0.598437"
       d="m 52.184872,22.919383 v 15.95214 h 27.70031 l -0.0465,-15.875341 c -0.002,-0.89686 -8.876569,-9.55306 -10.513579,-9.55306 h -6.40644 c -1.720921,0 -10.733092,8.631468 -10.733092,9.476261 z"
       id="path1214"
       style="fill:url(#c);stroke:url(#d);stroke-width:1;stroke-miterlimit:4;stroke-dasharray:none" />
    <path
       fill="url(#e)"
       fill-rule="evenodd"
       d="m 52.626902,22.798977 c -0.298183,-0.279862 8.905784,-8.912631 10.297055,-8.912631 h 6.27533 c 1.308859,0 10.516572,8.544255 10.059558,9.037593 l -8.136352,8.783114 -9.226443,-0.206968 -9.269148,-8.701759 z"
       id="path1216"
       style="fill:url(#e);stroke-width:0.698293" />
    <path
       fill-opacity="0.146"
       fill-rule="evenodd"
       d="m 61.733473,31.410269 -5.493911,-5.692265 18.593737,-4.514241 2.269338,4.045635 -5.556095,6.143949"
       id="path1218"
       style="stroke-width:0.698293" />
    <path
       fill-opacity="0.146"
       fill-rule="evenodd"
       d="m 61.144599,31.291816 -5.606292,-5.733919 18.466373,-4.486255 2.377972,4.081431 -5.424984,6.122472"
       id="path1220"
       style="stroke-width:0.698293" />
    <path
       fill-opacity="0.146"
       fill-rule="evenodd"
       d="m 61.506464,31.370568 -5.750138,-5.636293 18.706117,-4.598199 2.461883,4.291002 -5.604043,5.927219"
       id="path1222"
       style="stroke-width:0.698293" />
    <path
       fill="url(#f)"
       fill-rule="evenodd"
       d="m 61.370858,31.685575 -5.49391,-5.692265 18.514321,-4.486905 2.330023,4.157579 -5.33433,5.848467"
       id="path1224"
       style="fill:url(#f);fill-opacity:1;stroke-width:0.698293" />
    <path
       fill="#ffffff"
       fill-rule="evenodd"
       d="m 63.141226,31.693385 -8.946241,5.383115 1.662483,0.0039 7.490539,-4.470635 6.609474,-0.926148 z m -7.139161,-5.716346 0.991945,0.918339 17.075101,-4.480398 2.183929,3.698085 0.460011,-0.463399 -2.299306,-4.151071 z"
       id="path1232"
       style="stroke-width:0.698293" />
    <path
       fill="url(#i)"
       fill-rule="evenodd"
       d="m 57.410567,27.256595 4.514702,4.200535 0.896797,-0.667764 7.557217,0.02799 0.608353,0.473162 2.978085,-3.087595 C 73.10114,27.284581 57.410567,27.256595 57.410567,27.256595 Z"
       id="path1234"
       style="fill:url(#i);stroke-width:0.698293" />
    <path
       id="path1226"
       style="fill:url(#linearGradient1284);stroke-width:0.698293"
       d="m 64.615234,30.521484 c -0.674517,0.07432 -1.430251,-0.10268 -2.059993,0.110711 -3.327874,2.381534 -6.690253,4.733477 -9.996647,7.13343 -0.288726,0.369884 0.229846,0.574763 0.492187,0.296875 3.395669,-2.040399 6.795743,-4.078122 10.19336,-6.117188 2.203776,0 4.407552,0 6.611328,0 3.099817,2.043995 6.18761,4.126488 9.294922,6.146485 0.447121,0.144909 0.46219,-0.41394 0.107421,-0.5625 -2.977172,-2.321638 -5.890359,-4.76571 -8.910156,-7.005859 -1.910808,-0.0016 -3.821614,-0.0057 -5.732422,-0.002 z" />
    <path
       id="path1228"
       style="fill:url(#g);stroke-width:0.698293"
       d="m 52.558594,22.953125 c 2.902404,3.133407 5.804324,6.267265 8.707031,9.400391 0.305649,-0.335169 1.448764,-0.616253 0.690404,-1.0304 -3.081585,-2.864335 -6.164065,-5.727717 -9.245091,-8.592647 -0.290877,0.0411 -0.541494,-0.143516 -0.152344,0.222656 z" />
    <path
       fill="none"
       stroke="url(#h)"
       stroke-width="0.598437"
       d="m 52.915345,23.022867 0.02248,15.106696 h 26.181671 l -0.0472,-15.024039 c -0.0015,-0.488132 -8.403068,-8.98097 -10.027342,-8.98097 h -5.914963 c -1.687956,0 -10.215392,8.390656 -10.214643,8.898313 z"
       id="path1230"
       style="stroke:url(#h);stroke-width:0.598;stroke-miterlimit:4;stroke-dasharray:none" />
    <path
       id="path1236"
       style="fill:#61c0ff;fill-opacity:1;stroke-width:0.698293"
       d="m 78.677734,23.392578 c -2.792819,2.592608 -5.586831,5.183936 -8.378906,7.777344 0.438574,0.151766 0.966132,1.082945 1.310935,0.408658 2.418491,-2.666168 4.836981,-5.332335 7.255471,-7.998502 0.12993,-0.370532 0.197276,-0.329894 -0.1875,-0.1875 z" />
    <path
       style="color:#000000;display:inline;overflow:visible;visibility:visible;fill:url(#linearGradient3281);fill-opacity:1;fill-rule:nonzero;stroke:#1691e3;stroke-width:1;stroke-linecap:butt;stroke-linejoin:miter;stroke-miterlimit:4;stroke-dasharray:none;stroke-dashoffset:0;stroke-opacity:1;marker:none;marker-start:none;marker-mid:none;marker-end:none"
       d="m 105.27435,12.361282 c -0.2921,0.01999 -0.57601,0.06523 -0.86292,0.09806 h -0.0196 l -0.68642,3.7459 c -1.11881,0.254793 -2.17139,0.6872 -3.11831,1.274782 l -3.079094,-2.21616 c -0.832359,0.646218 -1.589798,1.399889 -2.255384,2.21616 l 2.137712,3.118315 c -0.649069,0.991908 -1.137165,2.124517 -1.412067,3.314435 -4.7e-5,0.0056 -3.8e-5,0.01863 0,0.01961 l -3.726288,0.588361 c -0.06813,0.556438 -0.09806,1.131498 -0.09806,1.706248 0,0.47025 0.01298,0.934217 0.05884,1.392455 l 3.726288,0.666809 c 0.265016,1.294014 0.768452,2.502504 1.470903,3.569392 l -2.21616,3.039866 c 0.634693,0.787945 1.36744,1.505337 2.157324,2.137713 l 3.137926,-2.157325 c 1.09666,0.69958 2.32086,1.190137 3.64784,1.431679 l 0.58836,3.706676 c 0.41808,0.03806 0.84683,0.03922 1.27478,0.03922 0.60417,0 1.18126,-0.02289 1.76508,-0.09806 l 0.70604,-3.785124 c 1.25991,-0.313542 2.44348,-0.857463 3.47133,-1.588575 l 3.02025,2.196548 c 0.78325,-0.666368 1.49948,-1.43231 2.1181,-2.255384 l -2.19654,-3.177151 c 0.59485,-1.027351 1.00704,-2.160865 1.21594,-3.373271 l 3.70668,-0.588362 c 0.0325,-0.386809 0.0392,-0.761943 0.0392,-1.15711 0,-0.686713 -0.0798,-1.36003 -0.17651,-2.02004 l -3.76551,-0.686422 c -0.29509,-1.089628 -0.77926,-2.10624 -1.39245,-3.020254 l 2.21616,-3.039867 c -0.68694,-0.84009 -1.47055,-1.616146 -2.33384,-2.274996 l -3.19676,2.196548 c -0.91878,-0.543387 -1.90752,-0.96032 -2.98103,-1.196334 l -0.58836,-3.726288 c -0.53552,-0.06299 -1.07544,-0.09806 -1.6278,-0.09806 -0.14928,0 -0.30292,-0.0047 -0.45108,0 -0.0722,0.0023 -0.14369,-0.0042 -0.21573,0 -0.0195,0.0011 -0.0394,-0.0013 -0.0588,0 z m 0.50992,9.531452 c 0.0716,-0.0036 0.14318,0 0.21573,0 2.32152,0 4.21659,1.895072 4.21659,4.216589 0,2.321517 -1.89507,4.196977 -4.21659,4.196977 -2.32152,0 -4.19698,-1.87546 -4.19698,-4.196977 0,-2.248969 1.76013,-4.10388 3.98125,-4.216589 z"
       id="path3243" />
    <path
       style="color:#000000;display:inline;overflow:visible;visibility:visible;opacity:0.647727;fill:none;fill-opacity:1;fill-rule:nonzero;stroke:#fff493;stroke-width:0.627587;stroke-linecap:butt;stroke-linejoin:miter;stroke-miterlimit:4;stroke-dasharray:none;stroke-dashoffset:0;stroke-opacity:1;marker:none;marker-start:none;marker-mid:none;marker-end:none"
       id="path3283"
       d="m 110.84728,26.10041 a 4.84478,4.84478 0 1 1 -9.68956,0 4.84478,4.84478 0 1 1 9.68956,0 z" />
    <path
       id="path3285"
       d="m 104.83993,13.102688 -0.55114,3.626822 c -1.04869,0.238825 -2.97772,0.96925 -3.8653,1.520007 L 97.491394,16.06101 c -0.780194,0.605719 -0.833698,0.646795 -1.457571,1.41191 l 2.120016,3.144174 c -0.608391,0.929743 -1.339144,2.58659 -1.601518,3.770588 0,0 -3.714935,0.62623 -3.714935,0.62623 -0.06386,0.521565 -0.03317,1.637871 0.0098,2.06739 l 3.54852,0.639251 c 0.248407,1.212915 1.177997,3.165282 1.836424,4.165306 l -2.243979,2.96474 c 0.594916,0.738563 0.713981,0.806147 1.454362,1.398891 l 3.000587,-2.198318 c 1.02794,0.655735 3.06829,1.453416 4.3121,1.67982 l 0.49246,3.581162 c 0.39188,0.03567 1.4745,0.135734 2.02173,0.06528 l 0.55114,-3.727954 c 1.18095,-0.293891 3.22149,-1.131511 4.18492,-1.816803 l 2.99739,2.165677 c 0.73415,-0.624605 0.74073,-0.718721 1.32059,-1.490212 l -2.22115,-3.157194 c 0.55757,-0.962965 1.27853,-2.846239 1.47434,-3.982662 l 3.63664,-0.6034 c 0.0305,-0.362568 0.032,-1.373652 -0.0587,-1.992298 l -3.70513,-0.639251 c -0.27659,-1.021339 -1.2258,-2.861777 -1.80057,-3.718508 l 2.35492,-2.96474 c -0.64389,-0.78744 -0.88329,-0.895483 -1.69248,-1.513043 l -3.10172,2.221148 c -0.8612,-0.509331 -2.57851,-1.285764 -3.58473,-1.506987 l -0.54793,-3.54852 c -0.50196,-0.05905 -1.95016,-0.03283 -2.23702,0 z"
       style="color:#000000;display:inline;overflow:visible;visibility:visible;opacity:0.346591;fill:none;fill-opacity:1;fill-rule:nonzero;stroke:#fff493;stroke-width:0.627585;stroke-linecap:butt;stroke-linejoin:miter;stroke-miterlimit:4;stroke-dasharray:none;stroke-dashoffset:0;stroke-opacity:1;marker:none;marker-start:none;marker-mid:none;marker-end:none" />
  </g>
</svg>
